<svg version="1.1" id="Layer_1" xmlns="http://www.w3.org/2000/svg" xmlns:xlink="http://www.w3.org/1999/xlink" x="0px" y="0px"
	 viewBox="0 0 153.5 26.9" style="enable-background:new 0 0 153.5 26.9;" xml:space="preserve">
<g>
	<path fill="currentColor" d="M18.4,0.5v24.5h-2.3l-0.1-3.5c-1.4,2.5-4.1,3.8-6.8,3.8c-4.9,0-8.7-3.2-8.7-9c0-5.8,3.8-9,8.7-9c2.7,0,5.5,1.2,6.8,3.7V0.5
		H18.4z M2.9,16.4c0,4.3,2.9,6.7,6.5,6.7c3.7,0,6.5-2.7,6.5-6.8c0-4-2.9-6.7-6.5-6.7C5.8,9.7,2.9,12,2.9,16.4z"/>
	<path fill="currentColor" d="M38,16.4c0,5.4-3.8,8.9-8.9,8.9c-5,0-8.9-3.5-8.9-8.9s3.7-9,8.9-9C34.2,7.4,38,11.1,38,16.4z M22.6,16.4
		c0,4,2.7,6.7,6.5,6.7c3.9,0,6.5-2.7,6.5-6.7c0-4-2.7-6.9-6.5-6.9C25.3,9.6,22.6,12.4,22.6,16.4z"/>
	<path fill="currentColor"d="M54.2,22.7c-1.8,1.8-4.1,2.6-6.4,2.6c-4.9,0-9-3.3-9-9c0-5.6,4-8.9,9-8.9c2.3,0,4.3,0.8,6.2,2.6l-1.5,1.5
		c-1.3-1.3-2.9-1.9-4.6-1.9c-3.7,0-6.7,2.5-6.7,6.7c0,4.3,3,6.7,6.7,6.7c1.8,0,3.5-0.7,4.8-2L54.2,22.7z"/>
	<path fill="currentColor"d="M57.7,0.5v14.6l7.6-7.4h3v0.1l-8.3,8l9.3,9v0.1h-3l-8.5-8.3v8.3h-2.3V0.5H57.7z"/>
	<path fill="currentColor"d="M72.6,2.3c0,2.2-3.3,2.2-3.3,0S72.6,0.1,72.6,2.3z M69.7,7.7v17.4h2.3V7.7H69.7z"/>
	<path fill="currentColor"d="M79.4,2.6v5.1H85v2h-5.6v9.8c0,2.2,0.6,3.6,2.9,3.6c0.8,0,1.7-0.3,2.5-0.7l0.7,2c-1.1,0.5-2.2,0.8-3.3,0.8
		c-3.7,0-5.2-2.1-5.2-5.7V9.8h-3.5v-2h3.5V2.9L79.4,2.6z"/>
	<path fill="currentColor"d="M86,13.9h12.4V16H86V13.9z"/>
	<path fill="currentColor"d="M115.9,7.8l-7.3,17.3h-2.6L98.8,7.8h2.6l6,14.7l6-14.7H115.9z"/>
	<path fill="currentColor"d="M119.4,7.8v9.7c0,3.6,2.2,5.7,5.7,5.6c3.3,0,5.7-2.6,5.7-5.9V7.8h2.3v17.3h-2.2l-0.1-2.9c-1.4,2.2-3.7,3.2-6.1,3.2
		c-4.5,0-7.6-2.9-7.6-7.8V7.8H119.4z"/>
	<path fill="currentColor"d="M137.3,17.4c0.3,3.6,3.1,5.7,6.5,5.7c2.1,0,4.6-0.8,5.8-2.4l1.6,1.4c-1.7,2.1-4.7,3.2-7.4,3.2c-5.1,0-9-3.5-9-9
		c0-5.2,3.7-8.9,8.9-8.9s9.3,3.1,8.6,9.9H137.3z M150.1,15.4c-0.1-3.8-2.9-5.8-6.4-5.8s-6,2.1-6.5,5.8H150.1z"/>
</g>
</svg>